<?xml version="1.0" encoding="UTF-8"?>
<svg width="14px" height="14px" viewBox="0 0 14 14" version="1.1" xmlns="http://www.w3.org/2000/svg" xmlns:xlink="http://www.w3.org/1999/xlink">
    <!-- Generator: sketchtool 61.2 (101010) - https://sketch.com -->
    <title>7ED43111-6BD3-467B-AA25-CA797CB06D04@2x</title>
    <desc>Created with sketchtool.</desc>
    <defs>
        <path d="M7.0709789,1.6355769 L6.57167821,1.17788461 C6.42482507,1.04326923 6.21923066,1.04326923 6.07237752,1.17788461 L2.95909086,4.00480756 L1.69615382,2.87403838 C1.54930067,2.739423 1.34370627,2.739423 1.19685313,2.87403838 L0.697552436,3.33173067 C0.550699291,3.46634604 0.550699291,3.65480757 0.697552436,3.78942295 L2.43041954,5.37788442 C2.57727268,5.5124998 2.75349646,5.56634595 2.92972023,5.56634595 C3.105944,5.56634595 3.28216778,5.5124998 3.42902092,5.37788442 L7.0709789,2.09326918 C7.18846142,1.98557688 7.18846142,1.77019228 7.0709789,1.6355769 L7.0709789,1.6355769 Z M14.2374126,4.70480767 L8.09895103,4.70480767 C7.83461537,4.70480767 7.62902096,4.51634613 7.62902096,4.27403843 L7.62902096,3.41249996 C7.62902096,3.17019226 7.83461537,2.98173072 8.09895103,2.98173072 L14.2374126,2.98173072 C14.5017482,2.98173072 14.7073426,3.17019226 14.7073426,3.41249996 L14.7073426,4.27403843 C14.7073426,4.51634613 14.5017482,4.70480767 14.2374126,4.70480767 Z M14.2374122,8.55480772 L2.90034962,8.55480772 C2.63601397,8.55480772 2.43041957,8.36634618 2.43041957,8.12403848 L2.43041957,7.26250001 C2.43041957,7.02019231 2.63601397,6.83173077 2.90034962,6.83173077 L14.2374122,6.83173077 C14.5017478,6.83173077 14.7073422,7.02019231 14.7073422,7.26250001 L14.7073422,8.12403848 C14.7073422,8.36634618 14.5017478,8.55480772 14.2374122,8.55480772 Z M14.2374122,12.4048075 L2.90034962,12.4048075 C2.63601397,12.4048075 2.43041957,12.216346 2.43041957,11.9740383 L2.43041957,11.1124998 C2.43041957,10.8701921 2.63601397,10.6817306 2.90034962,10.6817306 L14.2374122,10.6817306 C14.5017478,10.6817306 14.7073422,10.8701921 14.7073422,11.1124998 L14.7073422,11.9740383 C14.7073422,12.216346 14.5017478,12.4048075 14.2374122,12.4048075 Z" id="path-1"></path>
    </defs>
    <g id="Asset-Artboard-Page" stroke="none" stroke-width="1" fill="none" fill-rule="evenodd">
        <g id="Desktop-Components-/-VSM-/-Cards-/-Backlog-Icon-Desktop-Components-/-VSM-/-Cards-/-WIP-Icon">
            <g id="Icons-/-z-nested-/-icon-glyphs-/-utility-/mark_all_as_read" transform="translate(-0.636364, 0.000000)">
                <mask id="mask-2" fill="white">
                    <use xlink:href="#path-1"></use>
                </mask>
                <use id="🎨-Color" fill="#706E6B" xlink:href="#path-1"></use>
                <g id="🚫-Color-(Deprecated,-Use-Layer-Styles)-Icons-/-z-nested-/Icon-color/Copado-Blue" mask="url(#mask-2)" fill="#01C3EF">
                    <g transform="translate(-0.587413, -0.538462)" id="color">
                        <rect x="0" y="0" width="16.4475517" height="15.0769234"></rect>
                    </g>
                </g>
            </g>
        </g>
    </g>
</svg>