<?xml version="1.0" encoding="UTF-8"?>
<svg width="730px" height="303px" viewBox="0 0 730 303" version="1.1" xmlns="http://www.w3.org/2000/svg" xmlns:xlink="http://www.w3.org/1999/xlink">
    <title> Empty State / z-nested / Desert / Large</title>
    <g id="Deployment-Results-in-Copado" stroke="none" stroke-width="1" fill="none" fill-rule="evenodd">
        <g id="Desert" transform="translate(-106.000000, -176.000000)">
            <rect id="Rectangle-" fill-opacity="0" fill="#D8D8D8" x="0" y="0" width="939" height="626"></rect>
            <g id="Cloud2" transform="translate(383.425000, 313.000000)" stroke="#C2E8FF" stroke-linecap="round" stroke-width="3">
                <g id="Cloud2LightBlue">
                    <path d="M68.86,27.3875 L98.595,27.3875 C97.4665902,18.8933015 100.287615,11.7873762 107.058074,6.06972412 C114.832639,-0.306046143 124.06293,1.12331543 129.020037,3.32333252 C133.977144,5.52334961 137.658485,8.54598511 140.210398,14.2497012 C141.291685,16.6511854 142.026552,18.6829517 142.415,20.345" id="Cloud2Outline4"></path>
                    <path d="M129.895,32.0825 C131.547369,26.3642896 134.938584,22.625636 140.068646,20.8665393 C147.763739,18.2278943 155.060322,21.7418848 157.974829,25.2776538 C160.889336,28.8134229 161.813206,31.6538062 162.363401,34.6179834 C162.730198,36.5941016 162.862397,38.8789404 162.76,41.4725 C169.241861,41.20861 173.588149,42.5127767 175.798865,45.385 C178.472661,48.8179895 178.746995,52.9245862 177.773073,55.94875 C176.79915,58.9729138 173.549941,63.3825 167.455,63.3825 L43.82,63.3825" id="Cloud2Outline3"></path>
                    <line x1="28.17" y1="43.0375" x2="129.89578" y2="43.0375" id="Cloud2Outline2"></line>
                    <line x1="0" y1="43.0375" x2="12.52" y2="43.0375" id="Cloud2Outline1"></line>
                </g>
            </g>
            <g id="Cloud1" transform="translate(211.275000, 237.880000)" stroke="#C2E8FF" stroke-linecap="round" stroke-width="3">
                <g id="Cloud1LightBlue">
                    <path d="M68.86,27.3875 L98.595,27.3875 C97.4665902,18.8933015 100.287615,11.7873762 107.058074,6.06972412 C114.832639,-0.306046143 124.06293,1.12331543 129.020037,3.32333252 C133.977144,5.52334961 137.658485,8.54598511 140.210398,14.2497012 C141.291685,16.6511854 142.026552,18.6829517 142.415,20.345" id="Cloud1Outline4"></path>
                    <path d="M129.895,32.0825 C131.547369,26.3642896 134.938584,22.625636 140.068646,20.8665393 C147.763739,18.2278943 155.060322,21.7418848 157.974829,25.2776538 C160.889336,28.8134229 161.813206,31.6538062 162.363401,34.6179834 C162.730198,36.5941016 162.862397,38.8789404 162.76,41.4725 C169.241861,41.20861 173.588149,42.5127767 175.798865,45.385 C178.472661,48.8179895 178.746995,52.9245862 177.773073,55.94875 C176.79915,58.9729138 173.549941,63.3825 167.455,63.3825 L43.82,63.3825" id="Cloud1Outline3"></path>
                    <line x1="28.17" y1="43.0375" x2="129.89578" y2="43.0375" id="Cloud1Outline2"></line>
                    <line x1="0" y1="43.0375" x2="12.52" y2="43.0375" id="Cloud1Outline1"></line>
                </g>
            </g>
            <g id="Mountain" transform="translate(107.985000, 400.640000)" stroke="#C2E8FF" stroke-linecap="round" stroke-width="3">
                <g id="MountainLightBlue">
                    <line x1="21.91" y1="57.1225" x2="726.16" y2="57.1225" id="HorizontalLine4"></line>
                    <line x1="0" y1="57.1225" x2="9.39" y2="57.1225" id="HorizontalLine3"></line>
                    <polyline id="MountainLine4" stroke-linejoin="round" points="366.9925 56.34 437.4175 0 490.6275 40.69"></polyline>
                    <line x1="437.4175" y1="1.565" x2="437.4175" y2="54.775" id="MountainLine3" stroke-linejoin="round"></line>
                    <path d="M490.6275,17.215 C490.6275,32.4640295 490.6275,40.2890295 490.6275,40.69 C490.6275,40.2890295 490.6275,32.4640295 490.6275,17.215 Z" id="MountainLine2" stroke-linejoin="round"></path>
                    <polyline id="MountainLine1" stroke-linejoin="round" points="474.9775 26.605 490.6275 14.085 543.8375 56.34"></polyline>
                </g>
            </g>
            <g id="Plant" transform="translate(176.845000, 278.570000)">
                <g id="PlantLightBlue" transform="translate(46.950000, 12.520000)" fill="#C2E8FF">
                    <path d="M46.1675,94.6825 L46.1675,18.78 C46.1675,8.4080924 54.5755924,0 64.9475,0 C75.3194076,0 83.7275,8.4080924 83.7275,18.78 L83.7275,63.3825 L110.3325,63.3825 L110.3325,42.255 C110.3325,36.2047206 115.237221,31.3 121.2875,31.3 C127.337779,31.3 132.2425,36.2047206 132.2425,42.255 L132.2425,75.9025 C132.2425,81.0884538 128.038454,85.2925 122.8525,85.2925 L83.7275,85.2925 L83.7275,185.4525 L46.1675,185.4525 L46.1675,116.5925 L10.1725,116.5925 C4.9865462,116.5925 0.7825,112.388454 0.7825,107.2025 L0.7825,61.035 C0.7825,54.9847206 5.68722057,50.08 11.7375,50.08 C17.7877794,50.08 22.6925,54.9847206 22.6925,61.035 L22.6925,94.6825 L46.1675,94.6825 Z" id="PlantLightBlueLine1"></path>
                </g>
                <g id="PlantHighlight" transform="translate(92.335000, 10.955000)" fill="#FFFFFF">
                    <path d="M3.13,17.215 C5.71744629,13.2891272 8.84509013,10.6007481 12.5129315,9.14986267 C18.0146936,6.97353455 23.895097,7.75622559 27.8815295,9.83206665 C31.867962,11.9079077 34.99758,15.1019061 36.4022974,18.4921027 C37.3387756,20.7522337 37.3387756,18.3961369 36.4022974,11.4238123 L30.694021,5.5791333 L21.5850409,0.883178101 L13.7182031,2.23268494 L7.31358582,5.0046759 C4.22383158,8.04257738 2.65360982,9.65170763 2.60292053,9.83206665 C2.5268866,10.1026052 1.33976379,14.8541272 1.27385498,15.1179535 C1.22991577,15.2938377 1.84863078,15.9928532 3.13,17.215 Z" id="PlantHighlight1"></path>
                </g>
                <g id="PlantDarkBlue" stroke="#8CD3F8" stroke-width="3">
                    <line x1="0" y1="197.9725" x2="557.14" y2="197.9725" id="HorizontalLine2" stroke-linecap="round"></line>
                    <line x1="567.3125" y1="197.9725" x2="582.200578" y2="197.9725" id="HorizontalLine1" stroke-linecap="round"></line>
                    <line x1="168.2375" y1="31.3" x2="168.2375" y2="43.82" id="PlantDarkBlueLine10" stroke-linecap="round"></line>
                    <line x1="176.845" y1="47.9779769" x2="185.697977" y2="39.125" id="PlantDarkBlueLine9" stroke-linecap="round"></line>
                    <line x1="58.6875" y1="50.08" x2="58.6875" y2="62.6" id="PlantDarkBlueLine8" stroke-linecap="round"></line>
                    <line x1="68.86" y1="66.7579769" x2="77.7129769" y2="57.905" id="PlantDarkBlueLine7" stroke-linecap="round"></line>
                    <line x1="39.125" y1="66.7579769" x2="47.9779769" y2="57.905" id="PlantDarkBlueLine6" stroke-linecap="round" transform="translate(43.551488, 62.331488) scale(-1, 1) translate(-43.551488, -62.331488) "></line>
                    <line x1="111.8975" y1="0" x2="111.8975" y2="12.52" id="PlantDarkBlueLine5" stroke-linecap="round"></line>
                    <line x1="123.635" y1="16.6779769" x2="132.487977" y2="7.825" id="PlantDarkBlueLine4" stroke-linecap="round"></line>
                    <line x1="90.77" y1="16.6779769" x2="99.6229769" y2="7.825" id="PlantDarkBlueLine3" stroke-linecap="round" transform="translate(95.196488, 12.251488) scale(-1, 1) translate(-95.196488, -12.251488) "></line>
                    <path d="M93.1175,107.2025 L93.1175,31.3 C93.1175,20.9280924 101.525592,12.52 111.8975,12.52 C122.269408,12.52 130.6775,20.9280924 130.6775,31.3 L130.6775,75.9025 L157.2825,75.9025 L157.2825,54.775 C157.2825,48.7247206 162.187221,43.82 168.2375,43.82 C174.287779,43.82 179.1925,48.7247206 179.1925,54.775 L179.1925,88.4225 C179.1925,93.6084538 174.988454,97.8125 169.8025,97.8125 L130.6775,97.8125 L130.6775,197.9725 L93.1175,197.9725 L93.1175,129.1125 L57.1225,129.1125 C51.9365462,129.1125 47.7325,124.908454 47.7325,119.7225 L47.7325,73.555 C47.7325,67.5047206 52.6372206,62.6 58.6875,62.6 C64.7377794,62.6 69.6425,67.5047206 69.6425,73.555 L69.6425,107.2025 L93.1175,107.2025 Z" id="PlantDarkBlueLine2"></path>
                    <path d="M120.505,138.5025 L144.7625,138.5025 L144.7625,122.81 C144.7625,118.944007 147.896507,115.81 151.7625,115.81 L159.6725,115.81 C163.538493,115.81 166.6725,118.944007 166.6725,122.81 L166.6725,154.4125 C166.6725,157.726208 163.986208,160.4125 160.6725,160.4125 L120.505,160.4125 L120.505,160.4125" id="PlantDarkBlueLine1" fill="#C2E8FF" stroke-linecap="round" stroke-linejoin="round"></path>
                </g>
            </g>
            <g id="Plant2" transform="translate(671.385000, 378.730000)" stroke="#C2E8FF" stroke-linecap="round" stroke-width="3">
                <g id="Plant2LightBlue">
                    <line x1="19.5625" y1="6.26" x2="19.5625" y2="78.25" id="Plant2LightBlueLine3"></line>
                    <polyline id="Plant2LightBlueLine3" stroke-linejoin="round" points="17.215 28.9525 0.7825 28.9525 0.7825 0"></polyline>
                    <polyline id="Plant2LightBlueLine2" stroke-linejoin="round" points="21.91 39.9075 38.3425 39.9075 38.3425 12.52"></polyline>
                    <polyline id="Plant2LightBlueLine1" stroke-linejoin="round" points="3.9125 48.515 3.9125 60.2525 17.215 60.2525"></polyline>
                </g>
            </g>
            <g id="Sun" transform="translate(511.755000, 148.675000)">
                <g id="SunLightBlue">
                    <circle id="SunBkgd" fill="#C2E8FF" cx="100.16" cy="100.16" r="35.995"></circle>
                    <path d="M100.16,170.585 C139.054654,170.585 170.585,139.054654 170.585,100.16 C170.585,61.2653465 139.054654,29.735 100.16,29.735 C61.2653465,29.735 29.735,61.2653465 29.735,100.16 C29.735,139.054654 61.2653465,170.585 100.16,170.585 Z" id="SunOutline3" stroke="#C2E8FF" stroke-width="3" stroke-linecap="round" stroke-linejoin="round" stroke-dasharray="135,1,1,18" transform="translate(100.160000, 100.160000) rotate(230.000000) translate(-100.160000, -100.160000) "></path>
                    <path d="M100.16,151.805 C128.682746,151.805 151.805,128.682746 151.805,100.16 C151.805,71.6372541 128.682746,48.515 100.16,48.515 C71.6372541,48.515 48.515,71.6372541 48.515,100.16 C48.515,128.682746 71.6372541,151.805 100.16,151.805 Z" id="SunOutline2" stroke="#C2E8FF" stroke-width="3" stroke-linecap="round" stroke-linejoin="round" stroke-dasharray="107,10" transform="translate(100.160000, 100.160000) rotate(150.000000) translate(-100.160000, -100.160000) "></path>
                </g>
                <g id="SunDarkBlue" transform="translate(64.165000, 64.165000)" stroke="#8CD3F8" stroke-width="3">
                    <circle id="SunOutline" cx="35.995" cy="35.995" r="35.995"></circle>
                </g>
            </g>
        </g>
    </g>
</svg>