<?xml version="1.0" encoding="UTF-8"?>
<svg width="16px" height="16px" viewBox="0 0 16 16" version="1.1" xmlns="http://www.w3.org/2000/svg" xmlns:xlink="http://www.w3.org/1999/xlink">
    <!-- Generator: sketchtool 61.2 (101010) - https://sketch.com -->
    <title>865A2F22-CDEF-46A4-9B90-7CFE9CC95D0D@2x</title>
    <desc>Created with sketchtool.</desc>
    <defs>
        <path d="M4.89230789,8.92307692 C4.46153864,8.27692308 4.24615402,7.53846154 4.24615402,6.70769231 C4.24615402,5.29230769 4.83076943,4.12307692 5.75384639,3.41538462 C5.44615407,2.86153846 4.83076943,2.46153846 4.0307694,2.46153846 C2.67692319,2.46153846 1.90769239,3.56923077 1.90769239,4.83076923 C1.90769239,5.50769231 2.12307701,6.09230769 2.58461549,6.49230769 C2.83076935,6.73846154 3.04615397,7.04615385 3.04615397,7.35384615 C3.04615397,7.66153846 2.92307704,7.96923077 2.15384624,8.30769231 C1.04615389,8.8 0.030769232,9.47692308 -8.8817842e-16,10.4923077 C0.030769232,11.1692308 0.46153848,11.6923077 1.10769235,11.6923077 L2.12307701,11.6923077 C2.27692317,11.6923077 2.43076933,11.6 2.52307703,11.4461538 C3.01538474,10.5538462 3.9384617,10 4.7076925,9.6 C4.98461559,9.47692308 5.04615405,9.13846154 4.89230789,8.92307692 L4.89230789,8.92307692 Z M13.876923,8.30769231 C13.1076922,7.96923077 12.9846153,7.69230769 12.9846153,7.35384615 C12.9846153,7.01538462 13.1999999,6.70769231 13.4461538,6.49230769 C13.9076922,6.06153846 14.1230769,5.50769231 14.1230769,4.83076923 C14.1230769,3.56923077 13.3846153,2.46153846 11.9999998,2.46153846 C11.1999998,2.46153846 10.5846152,2.86153846 10.2461536,3.41538462 C11.1692306,4.12307692 11.753846,5.29230769 11.753846,6.70769231 C11.753846,7.53846154 11.5384614,8.27692308 11.1076921,8.92307692 C10.953846,9.16923077 11.0461536,9.47692308 11.2923075,9.6 C12.0615383,9.96923077 12.9846153,10.5538462 13.476923,11.4461538 C13.5692307,11.6 13.7230769,11.6923077 13.876923,11.6923077 L14.8923077,11.6923077 C15.5384616,11.6923077 15.9692308,11.1692308 15.9692308,10.4923077 C16,9.47692308 14.9846154,8.8 13.876923,8.30769231 L13.876923,8.30769231 Z M10.0615386,10.5538462 C9.23076935,10.1846154 9.07692319,9.84615388 9.07692319,9.50769234 C9.07692319,9.13846157 9.32307704,8.80000003 9.60000012,8.55384618 C10.0923078,8.09230772 10.3692309,7.44615388 10.3692309,6.70769234 C10.3692309,5.32307695 9.53846166,4.12307695 8.03076935,4.12307695 C6.52307704,4.12307695 5.69230781,5.32307695 5.69230781,6.70769234 C5.69230781,7.44615388 5.96923089,8.09230772 6.46153858,8.55384618 C6.73846166,8.83076926 6.9846155,9.1692308 6.9846155,9.50769234 C6.9846155,9.87692311 6.86153858,10.1846154 6.00000012,10.5538462 C4.76923089,11.0769231 3.60000012,11.6615385 3.56923089,12.7692308 C3.56923089,13.5076923 4.12307704,14.123077 4.83076935,14.123077 L11.2307693,14.123077 C11.9384617,14.123077 12.4923078,13.5076923 12.4923078,12.7692308 C12.4615386,11.6923077 11.2923078,11.1076923 10.0615386,10.5538462 Z" id="path-1"></path>
    </defs>
    <g id="Asset-Artboard-Page" stroke="none" stroke-width="1" fill="none" fill-rule="evenodd">
        <g id="Desktop-Components-/-VSM-/-Card-/-Operator-Icon-Icons-/-z-nested-/-icon-glyphs-/-utility-/groups">
            <mask id="mask-2" fill="white">
                <use xlink:href="#path-1"></use>
            </mask>
            <use id="🎨-Color" fill="#706E6B" xlink:href="#path-1"></use>
            <g id="🚫-Color-(Deprecated,-Use-Layer-Styles)-Icons-/-z-nested-/Icon-color/Copado-Blue" mask="url(#mask-2)" fill="#01C3EF">
                <g transform="translate(-0.615385, -0.615385)" id="color">
                    <rect x="0" y="0" width="17.2307701" height="17.2307701"></rect>
                </g>
            </g>
        </g>
    </g>
</svg>